<svg width="500" height="500" viewBox="0 0 500 500" xmlns="http://www.w3.org/2000/svg">
  <defs>
    <radialGradient id="nebula1" cx="20%" cy="20%" r="50%">
      <stop offset="0%" stop-color="rgba(238, 130, 238, 0.2)"/>
      <stop offset="100%" stop-color="rgba(238, 130, 238, 0)"/>
    </radialGradient>
    <radialGradient id="nebula2" cx="80%" cy="80%" r="40%">
      <stop offset="0%" stop-color="rgba(255, 105, 180, 0.15)"/>
      <stop offset="100%" stop-color="rgba(255, 105, 180, 0)"/>
    </radialGradient>
  </defs>
  <rect width="100%" height="100%" fill="#00002E"/>
  <rect width="100%" height="100%" fill="url(#nebula1)"/>
  <rect width="100%" height="100%" fill="url(#nebula2)"/>
  <circle cx="250" cy="125" r="1.5" fill="white" opacity="0.8"></circle>
  <circle cx="100" cy="300" r="1" fill="#ADD8E6" opacity="0.5"></circle>
  <circle cx="400" cy="450" r="1.2" fill="white" opacity="0.9"></circle>
  <circle cx="50" cy="50" r="0.8" fill="white" opacity="0.7"></circle>
  <circle cx="480" cy="20" r="1.1" fill="#ADD8E6" opacity="0.6"></circle>
  <circle cx="320" cy="220" r="1.4" fill="white" opacity="0.85"></circle>
  <circle cx="150" cy="180" r="0.9" fill="white" opacity="0.4"></circle>
  <circle cx="25" cy="400" r="1.3" fill="#ADD8E6" opacity="0.75"></circle>
  <circle cx="450" cy="350" r="1" fill="white" opacity="0.9"></circle>
  <circle cx="200" cy="80" r="1.6" fill="white" opacity="0.6"></circle>
  <circle cx="380" cy="150" r="0.7" fill="#ADD8E6" opacity="0.5"></circle>
  <circle cx="120" cy="480" r="1.2" fill="white" opacity="0.8"></circle>
  <circle cx="30" cy="200" r="1" fill="white" opacity="0.9"></circle>
  <circle cx="490" cy="250" r="1.4" fill="#ADD8E6" opacity="0.7"></circle>
  <circle cx="270" cy="380" r="0.9" fill="white" opacity="0.6"></circle>
  <circle cx="80" cy="120" r="1.1" fill="white" opacity="0.8"></circle>
  <circle cx="420" cy="30" r="1.3" fill="#ADD8E6" opacity="0.9"></circle>
  <circle cx="180" cy="420" r="1.5" fill="white" opacity="0.75"></circle>
  <circle cx="350" cy="90" r="0.8" fill="#ADD8E6" opacity="0.5"></circle>
  <circle cx="70" cy="280" r="1.2" fill="white" opacity="0.9"></circle>
  <circle cx="20" cy="10" r="1" fill="white" opacity="0.6"></circle>
  <circle cx="495" cy="495" r="1.4" fill="#ADD8E6" opacity="0.8"></circle>
  <circle cx="230" cy="310" r="0.9" fill="white" opacity="0.7"></circle>
  <circle cx="390" cy="200" r="1.1" fill="white" opacity="0.85"></circle>
  <circle cx="110" cy="40" r="1.3" fill="#ADD8E6" opacity="0.6"></circle>
  <circle cx="300" cy="470" r="1.5" fill="white" opacity="0.9"></circle>
  <circle cx="140" cy="140" r="0.8" fill="white" opacity="0.5"></circle>
  <circle cx="410" cy="280" r="1.2" fill="#ADD8E6" opacity="0.7"></circle>
  <circle cx="40" cy="150" r="1" fill="white" opacity="0.8"></circle>
</svg>